<svg width="186" height="32" viewBox="0 0 186 32" fill="none" xmlns="http://www.w3.org/2000/svg">
<path d="M0 12.749C0 5.7079 5.74008 0 12.8208 0H27.052V19.2509C27.052 26.2919 21.3118 31.9999 14.2311 31.9999H0V12.749Z" fill="url(#paint0_linear_1_31229)"/>
<path d="M12.5208 27.0448C11.1515 27.0448 9.82365 26.921 8.53733 26.6734C7.25101 26.4053 3.85264 24.9449 0 32.0001V25.6589C3.55628 20.5775 8.49583 22.5374 9.47095 22.7437C10.4461 22.95 11.4419 23.0531 12.4585 23.0531C13.5789 23.0531 14.5126 22.8777 15.2594 22.5271C16.0271 22.1557 16.4108 21.609 16.4108 20.8871C16.4108 20.4125 16.2345 20 15.8818 19.6493C15.5291 19.2987 15.0831 18.9995 14.5436 18.752C14.0042 18.5044 13.2469 18.2053 12.2718 17.8546C10.9232 17.3596 9.81328 16.8954 8.9419 16.4622C8.09127 16.0289 7.35474 15.4306 6.73233 14.6674C6.13067 13.9042 5.82983 12.9552 5.82983 11.8206C5.82983 9.77836 6.62859 8.17961 8.22612 7.02439C9.82365 5.86918 10.7874 5.291 13.526 5.291C14.6049 5.291 15.5132 5.41849 16.7312 5.54598C17.9492 5.67347 19.4877 5.41849 21.9236 2.74121L24.1673 5.16351C21.4108 8.60573 19.3595 9.54995 17.5004 9.43442C16.8607 9.39465 16.1726 9.28326 14.917 9.28326C13.8382 9.28326 12.9669 9.47924 12.3029 9.87118C11.639 10.2425 11.3071 10.7686 11.3071 11.4493C11.3071 12.0269 11.6183 12.5014 12.2407 12.8727C12.8632 13.2441 13.8486 13.6773 15.1972 14.1723C16.5665 14.688 17.6971 15.1832 18.5893 15.6576C19.5022 16.1114 20.2801 16.7406 20.9234 17.5452C21.5664 18.3496 21.8881 19.3398 21.8881 20.5157C21.8881 22.5786 21.0894 24.1876 19.4918 25.343C17.8943 26.4775 15.5707 27.0448 12.5208 27.0448Z" fill="white"/>
<path d="M25.5134 1.53027V6.75735L20.2568 1.53027H25.5134Z" fill="white"/>
<path d="M42.901 24C41.8106 24 40.8255 23.8114 39.9461 23.4343C39.0736 23.0501 38.3525 22.5056 37.7826 21.8012C37.2198 21.0896 36.854 20.2464 36.6851 19.2715L38.9857 18.9193C39.2179 19.8586 39.7034 20.5915 40.4421 21.1181C41.1809 21.6375 42.0427 21.8973 43.0277 21.8973C43.6398 21.8973 44.2026 21.8012 44.7162 21.609C45.2299 21.4098 45.6415 21.1287 45.951 20.7658C46.2676 20.3958 46.4259 19.9546 46.4259 19.4423C46.4259 19.1648 46.3767 18.9193 46.2781 18.7058C46.1867 18.4923 46.0565 18.3074 45.8877 18.1508C45.7259 17.9871 45.5254 17.8484 45.2861 17.7345C45.054 17.6135 44.7972 17.5104 44.5158 17.4249L40.6215 16.2615C40.2416 16.1477 39.8546 16.0018 39.4606 15.8239C39.0666 15.6389 38.7043 15.4005 38.3737 15.1088C38.0499 14.8099 37.7861 14.4434 37.5821 14.0094C37.378 13.5682 37.276 13.0345 37.276 12.4083C37.276 11.4619 37.5153 10.6613 37.9937 10.0067C38.4792 9.3449 39.1335 8.84679 39.9566 8.51234C40.7798 8.17078 41.7015 8 42.7216 8C43.7488 8.01423 44.667 8.19925 45.4761 8.55504C46.2922 8.91083 46.9677 9.42317 47.5024 10.0921C48.0441 10.7538 48.417 11.5579 48.6211 12.5043L46.2571 12.9099C46.1516 12.3336 45.9264 11.839 45.5817 11.4263C45.2369 11.0065 44.8147 10.6862 44.3152 10.4656C43.8157 10.2379 43.274 10.1205 42.69 10.1134C42.1271 10.0992 41.61 10.1846 41.1386 10.3696C40.6743 10.5546 40.3013 10.8143 40.0199 11.1488C39.7455 11.4832 39.6084 11.8675 39.6084 12.3015C39.6084 12.7285 39.7315 13.0736 39.9777 13.3369C40.224 13.6002 40.5265 13.8101 40.8853 13.9667C41.2512 14.1161 41.6135 14.2406 41.9724 14.3402L44.7796 15.1408C45.1314 15.2404 45.5289 15.3756 45.9721 15.5464C46.4224 15.71 46.8551 15.9413 47.2702 16.2402C47.6923 16.5391 48.0406 16.9375 48.315 17.4356C48.5893 17.9266 48.7266 18.5457 48.7266 19.2929C48.7266 20.0685 48.5718 20.7516 48.2622 21.3422C47.9527 21.9257 47.527 22.4168 46.9853 22.8152C46.4505 23.2066 45.8314 23.5019 45.1279 23.7011C44.4243 23.9004 43.682 24 42.901 24Z" fill="url(#paint1_linear_1_31229)"/>
<path d="M65.6406 24L65.6518 16.7046C65.6518 15.8591 65.4277 15.2014 64.9797 14.7317C64.5316 14.2547 63.9417 14.0162 63.2098 14.0162C62.7618 14.0162 62.3511 14.1174 61.9777 14.3198C61.6118 14.5149 61.3131 14.8112 61.0816 15.2087C60.8576 15.5989 60.7455 16.0904 60.7455 16.6829L59.6142 16.1301C59.5992 15.3062 59.7785 14.5835 60.1519 13.9621C60.5328 13.3406 61.048 12.86 61.6977 12.5203C62.3474 12.1734 63.0755 12 63.8819 12C65.1888 12 66.2006 12.3794 66.9175 13.1382C67.6344 13.8971 67.9929 14.9052 67.9929 16.1626L67.9817 24H65.6406ZM51.1348 24V12.2927H53.2182V15.6748H53.487V24H51.1348ZM58.3933 24L58.4044 16.748C58.4044 15.8952 58.1804 15.2268 57.7324 14.7425C57.2918 14.2584 56.6981 14.0162 55.9513 14.0162C55.2121 14.0162 54.6146 14.2619 54.1591 14.7534C53.7111 15.2448 53.487 15.888 53.487 16.6829L52.3669 15.9891C52.3669 15.2231 52.5574 14.5402 52.9382 13.9404C53.3191 13.3406 53.8343 12.8672 54.484 12.5203C55.1337 12.1734 55.8692 12 56.6906 12C57.5494 12 58.2812 12.1771 58.8861 12.5312C59.491 12.8781 59.9502 13.3658 60.2639 13.9946C60.585 14.6233 60.7455 15.3532 60.7455 16.1843L60.7344 24H58.3933Z" fill="url(#paint2_linear_1_31229)"/>
<path d="M73.6553 24C72.7661 24 72.0215 23.8456 71.4214 23.5369C70.8212 23.221 70.3655 22.807 70.0543 22.2947C69.7505 21.7754 69.5986 21.207 69.5986 20.5894C69.5986 20.014 69.7061 19.5088 69.9209 19.0737C70.1358 18.6386 70.4544 18.2702 70.8767 17.9684C71.2991 17.6597 71.8177 17.4105 72.4327 17.2211C72.9662 17.0737 73.57 16.9438 74.2443 16.8316C74.9185 16.7193 75.6261 16.614 76.367 16.5158C77.1154 16.4175 77.8563 16.3193 78.5898 16.2211L77.7452 16.6631C77.76 15.7719 77.56 15.1123 77.1451 14.6842C76.7375 14.2491 76.0336 14.0316 75.0333 14.0316C74.4035 14.0316 73.8257 14.1719 73.2996 14.4527C72.7736 14.7264 72.4068 15.1825 72.1993 15.8211L70.0321 15.1895C70.3285 14.214 70.8916 13.4386 71.7214 12.8632C72.5587 12.2877 73.6701 12 75.0556 12C76.13 12 77.0635 12.1754 77.8563 12.5263C78.6565 12.8702 79.2419 13.4175 79.6123 14.1684C79.8049 14.5403 79.9235 14.9333 79.968 15.3474C80.0124 15.7614 80.0346 16.207 80.0346 16.6842V23.6842H77.9786V21.0842L78.3787 21.4211C77.8822 22.2912 77.2487 22.9403 76.4782 23.3684C75.7151 23.7895 74.7741 24 73.6553 24ZM74.0665 22.2C74.7259 22.2 75.2927 22.0912 75.7669 21.8737C76.2411 21.6491 76.6227 21.3649 76.9116 21.0211C77.2006 20.6772 77.3895 20.3193 77.4784 19.9474C77.6044 19.6106 77.6748 19.2316 77.6896 18.8105C77.7118 18.3895 77.7229 18.0527 77.7229 17.8L78.4787 18.0631C77.7452 18.1684 77.0783 18.2632 76.4782 18.3473C75.878 18.4316 75.3335 18.5158 74.8444 18.6C74.3629 18.6772 73.9331 18.772 73.5552 18.8842C73.2367 18.9895 72.9514 19.1158 72.6995 19.2632C72.455 19.4106 72.2586 19.5895 72.1105 19.8C71.9696 20.0105 71.8993 20.2667 71.8993 20.5684C71.8993 20.8631 71.9771 21.1368 72.1326 21.3894C72.2882 21.6351 72.5253 21.8316 72.8439 21.979C73.1625 22.1264 73.57 22.2 74.0665 22.2Z" fill="url(#paint3_linear_1_31229)"/>
<path d="M81.6401 24V12.0688H83.6891V14.9632L83.4027 14.5876C83.5496 14.2047 83.7405 13.8548 83.9755 13.5381C84.2105 13.2141 84.4822 12.9489 84.7907 12.7427C85.0918 12.5218 85.4259 12.3524 85.7931 12.2345C86.1676 12.1093 86.5495 12.0357 86.9387 12.0136C87.3279 11.9841 87.7025 12.0026 88.0623 12.0688V14.2342C87.6731 14.131 87.2399 14.1016 86.7625 14.1457C86.2924 14.1899 85.8592 14.3409 85.4626 14.5987C85.088 14.8418 84.7907 15.1364 84.5704 15.4825C84.3574 15.8286 84.2031 16.2153 84.1077 16.6425C84.0122 17.0623 83.9645 17.5078 83.9645 17.9792V24H81.6401Z" fill="url(#paint4_linear_1_31229)"/>
<path d="M96.8929 23.8106C96.1533 23.9556 95.4281 24.0173 94.7174 23.9956C94.0068 23.9738 93.3723 23.836 92.8139 23.5822C92.2554 23.3284 91.8349 22.9296 91.5521 22.3857C91.2982 21.8998 91.1605 21.4067 91.1387 20.9064C91.1242 20.3988 91.1169 19.8259 91.1169 19.1878V8.7998H93.4013V19.079C93.4013 19.5503 93.4049 19.96 93.4121 20.3081C93.4266 20.6562 93.5027 20.9498 93.6405 21.1892C93.9016 21.6387 94.3149 21.8962 94.8806 21.9614C95.4535 22.0195 96.1242 21.9941 96.8929 21.8853V23.8106ZM88.8652 13.8904V12.063H96.8929V13.8904H88.8652Z" fill="url(#paint5_linear_1_31229)"/>
<path d="M100.104 24V8H106.587C106.742 8 106.936 8.00741 107.166 8.02223C107.396 8.02963 107.615 8.05186 107.824 8.08889C108.714 8.22963 109.457 8.53334 110.051 9.00001C110.652 9.46667 111.102 10.0556 111.399 10.7667C111.696 11.4778 111.844 12.263 111.844 13.1222C111.844 14.3963 111.518 15.4963 110.864 16.4222C110.211 17.3407 109.23 17.9149 107.924 18.1445L106.976 18.2556H102.431V24H100.104ZM109.483 24L106.319 17.4889L108.67 16.8889L112.145 24H109.483ZM102.431 16.0555H106.498C106.646 16.0555 106.809 16.0481 106.988 16.0334C107.173 16.0186 107.348 15.9926 107.511 15.9556C107.986 15.8444 108.369 15.6407 108.659 15.3445C108.948 15.0408 109.156 14.6926 109.283 14.3C109.408 13.9074 109.472 13.5148 109.472 13.1222C109.472 12.7296 109.408 12.3408 109.283 11.9556C109.156 11.563 108.948 11.2185 108.659 10.9222C108.369 10.6185 107.986 10.4111 107.511 10.3C107.348 10.2556 107.173 10.2259 106.988 10.2111C106.809 10.1963 106.646 10.1889 106.498 10.1889H102.431V16.0555Z" fill="url(#paint6_linear_1_31229)"/>
<path d="M119.626 24C118.456 24 117.428 23.7544 116.541 23.2632C115.662 22.7649 114.976 22.0736 114.481 21.1894C113.994 20.2982 113.751 19.2666 113.751 18.0947C113.751 16.8526 113.991 15.7754 114.471 14.8632C114.958 13.9509 115.633 13.2456 116.498 12.7474C117.363 12.2491 118.369 12 119.517 12C120.717 12 121.738 12.2702 122.58 12.8105C123.423 13.3438 124.051 14.1053 124.466 15.0947C124.887 16.0842 125.054 17.2597 124.967 18.621H122.689V17.821C122.674 16.5018 122.413 15.5263 121.904 14.8947C121.403 14.2631 120.637 13.9474 119.604 13.9474C118.464 13.9474 117.606 14.2947 117.032 14.9895C116.458 15.6842 116.171 16.6877 116.171 18C116.171 19.2491 116.458 20.2175 117.032 20.9053C117.606 21.586 118.435 21.9263 119.517 21.9263C120.23 21.9263 120.844 21.7719 121.359 21.4631C121.883 21.1474 122.29 20.6982 122.58 20.1158L124.814 20.8C124.357 21.8175 123.663 22.607 122.733 23.1684C121.803 23.7228 120.767 24 119.626 24ZM115.43 18.621V16.9053H123.834V18.621H115.43Z" fill="url(#paint7_linear_1_31229)"/>
<path d="M130.34 24C129.519 24 128.832 23.8456 128.278 23.5369C127.724 23.221 127.304 22.807 127.016 22.2947C126.735 21.7754 126.595 21.207 126.595 20.5894C126.595 20.014 126.695 19.5088 126.893 19.0737C127.091 18.6386 127.385 18.2702 127.775 17.9684C128.165 17.6597 128.643 17.4105 129.212 17.2211C129.704 17.0737 130.261 16.9438 130.884 16.8316C131.506 16.7193 132.159 16.614 132.844 16.5158C133.534 16.4175 134.218 16.3193 134.895 16.2211L134.115 16.6631C134.129 15.7719 133.945 15.1123 133.562 14.6842C133.185 14.2491 132.535 14.0316 131.612 14.0316C131.031 14.0316 130.497 14.1719 130.012 14.4527C129.526 14.7264 129.187 15.1825 128.996 15.8211L126.995 15.1895C127.269 14.214 127.789 13.4386 128.555 12.8632C129.328 12.2877 130.353 12 131.632 12C132.624 12 133.486 12.1754 134.218 12.5263C134.957 12.8702 135.497 13.4175 135.839 14.1684C136.016 14.5403 136.126 14.9333 136.167 15.3474C136.208 15.7614 136.228 16.207 136.228 16.6842V23.6842H134.331V21.0842L134.7 21.4211C134.242 22.2912 133.657 22.9403 132.946 23.3684C132.241 23.7895 131.373 24 130.34 24ZM130.719 22.2C131.328 22.2 131.852 22.0912 132.289 21.8737C132.727 21.6491 133.079 21.3649 133.346 21.0211C133.613 20.6772 133.787 20.3193 133.869 19.9474C133.985 19.6106 134.051 19.2316 134.064 18.8105C134.085 18.3895 134.095 18.0527 134.095 17.8L134.792 18.0631C134.115 18.1684 133.5 18.2632 132.946 18.3473C132.392 18.4316 131.889 18.5158 131.437 18.6C130.993 18.6772 130.596 18.772 130.247 18.8842C129.953 18.9895 129.69 19.1158 129.458 19.2632C129.232 19.4106 129.051 19.5895 128.914 19.8C128.784 20.0105 128.719 20.2667 128.719 20.5684C128.719 20.8631 128.791 21.1368 128.934 21.3894C129.078 21.6351 129.297 21.8316 129.591 21.979C129.885 22.1264 130.261 22.2 130.719 22.2Z" fill="url(#paint8_linear_1_31229)"/>
<path d="M144.123 24C142.959 24 141.972 23.7403 141.159 23.221C140.346 22.7017 139.722 21.9895 139.288 21.0842C138.861 20.1789 138.643 19.1509 138.637 18C138.643 16.8281 138.867 15.793 139.309 14.8947C139.751 13.9895 140.381 13.2807 141.201 12.7684C142.021 12.2561 143.005 12 144.155 12C145.394 12 146.453 12.3088 147.329 12.9263C148.211 13.5438 148.792 14.3895 149.073 15.4632L146.886 16.0947C146.669 15.4562 146.313 14.9614 145.815 14.6105C145.324 14.2527 144.76 14.0737 144.123 14.0737C143.401 14.0737 142.809 14.2456 142.346 14.5895C141.884 14.9263 141.54 15.3895 141.316 15.9789C141.092 16.5684 140.976 17.2421 140.97 18C140.976 19.1719 141.243 20.1193 141.768 20.8421C142.301 21.5649 143.085 21.9263 144.123 21.9263C144.83 21.9263 145.401 21.7649 145.836 21.4421C146.277 21.1123 146.614 20.6421 146.845 20.0316L149.073 20.5579C148.701 21.6667 148.088 22.5193 147.234 23.1158C146.379 23.7052 145.342 24 144.123 24Z" fill="url(#paint9_linear_1_31229)"/>
<path d="M159.638 24V18.1C159.638 17.6334 159.599 17.1556 159.52 16.6667C159.448 16.1704 159.305 15.7111 159.09 15.2889C158.882 14.8667 158.585 14.5259 158.198 14.2667C157.818 14.0074 157.32 13.8778 156.704 13.8778C156.303 13.8778 155.923 13.9481 155.565 14.0889C155.207 14.2222 154.891 14.4407 154.619 14.7445C154.354 15.0482 154.143 15.4482 153.985 15.9444C153.834 16.4408 153.76 17.0445 153.76 17.7555L152.362 17.2111C152.362 16.1223 152.559 15.1629 152.953 14.3334C153.348 13.4963 153.913 12.8445 154.651 12.3778C155.389 11.9111 156.281 11.6778 157.328 11.6778C158.13 11.6778 158.804 11.8111 159.348 12.0778C159.893 12.3445 160.334 12.6963 160.67 13.1333C161.014 13.563 161.276 14.0333 161.455 14.5445C161.634 15.0556 161.756 15.5556 161.82 16.0445C161.885 16.5333 161.917 16.963 161.917 17.3333V24H159.638ZM151.481 24V8H153.491V16.6333H153.76V24H151.481Z" fill="url(#paint10_linear_1_31229)"/>
<path d="M168.339 24L173.199 8H176.324L181.183 24H178.93L174.455 9.4H175.015L170.592 24H168.339ZM170.862 20.389V18.2112H178.67V20.389H170.862Z" fill="url(#paint11_linear_1_31229)"/>
<path d="M183.592 24V8H186V24H183.592Z" fill="url(#paint12_linear_1_31229)"/>
<defs>
<linearGradient id="paint0_linear_1_31229" x1="0" y1="0" x2="27.052" y2="-2.3839e-09" gradientUnits="userSpaceOnUse">
<stop stop-color="#6938EF"/>
<stop offset="1" stop-color="#2595FF"/>
</linearGradient>
<linearGradient id="paint1_linear_1_31229" x1="36.6851" y1="8" x2="182.343" y2="8" gradientUnits="userSpaceOnUse">
<stop stop-color="#5652F3"/>
<stop offset="1" stop-color="#2595FF"/>
</linearGradient>
<linearGradient id="paint2_linear_1_31229" x1="35.978" y1="8.07587" x2="190.578" y2="8.07587" gradientUnits="userSpaceOnUse">
<stop stop-color="#5652F3"/>
<stop offset="1" stop-color="#2595FF"/>
</linearGradient>
<linearGradient id="paint3_linear_1_31229" x1="35.6147" y1="8.22105" x2="189.008" y2="8.22105" gradientUnits="userSpaceOnUse">
<stop stop-color="#5652F3"/>
<stop offset="1" stop-color="#2595FF"/>
</linearGradient>
<linearGradient id="paint4_linear_1_31229" x1="34.7524" y1="7.7714" x2="186.789" y2="7.7714" gradientUnits="userSpaceOnUse">
<stop stop-color="#5652F3"/>
<stop offset="1" stop-color="#2595FF"/>
</linearGradient>
<linearGradient id="paint5_linear_1_31229" x1="35.4574" y1="7.83172" x2="185.589" y2="7.83172" gradientUnits="userSpaceOnUse">
<stop stop-color="#5652F3"/>
<stop offset="1" stop-color="#2595FF"/>
</linearGradient>
<linearGradient id="paint6_linear_1_31229" x1="34.6505" y1="7.67778" x2="188.4" y2="7.67778" gradientUnits="userSpaceOnUse">
<stop stop-color="#5652F3"/>
<stop offset="1" stop-color="#2595FF"/>
</linearGradient>
<linearGradient id="paint7_linear_1_31229" x1="36.182" y1="8.22105" x2="186.623" y2="8.22105" gradientUnits="userSpaceOnUse">
<stop stop-color="#5652F3"/>
<stop offset="1" stop-color="#2595FF"/>
</linearGradient>
<linearGradient id="paint8_linear_1_31229" x1="41.5446" y1="8.22105" x2="183.14" y2="8.22105" gradientUnits="userSpaceOnUse">
<stop stop-color="#5652F3"/>
<stop offset="1" stop-color="#2595FF"/>
</linearGradient>
<linearGradient id="paint9_linear_1_31229" x1="39.5392" y1="8.22105" x2="184.596" y2="8.22105" gradientUnits="userSpaceOnUse">
<stop stop-color="#5652F3"/>
<stop offset="1" stop-color="#2595FF"/>
</linearGradient>
<linearGradient id="paint10_linear_1_31229" x1="37.294" y1="7.67778" x2="185.628" y2="7.67778" gradientUnits="userSpaceOnUse">
<stop stop-color="#5652F3"/>
<stop offset="1" stop-color="#2595FF"/>
</linearGradient>
<linearGradient id="paint11_linear_1_31229" x1="42.1172" y1="7.67778" x2="185.423" y2="7.67778" gradientUnits="userSpaceOnUse">
<stop stop-color="#5652F3"/>
<stop offset="1" stop-color="#2595FF"/>
</linearGradient>
<linearGradient id="paint12_linear_1_31229" x1="26.9316" y1="7.67778" x2="186" y2="7.67778" gradientUnits="userSpaceOnUse">
<stop stop-color="#5652F3"/>
<stop offset="1" stop-color="#2595FF"/>
</linearGradient>
</defs>
</svg>
